<svg width="32" height="32" viewBox="0 0 32 32" fill="none" xmlns="http://www.w3.org/2000/svg">
<path d="M9.57143 31H22.4286C24.7019 31 26.882 30.1097 28.4895 28.5248C30.097 26.94 31 24.7906 31 22.5493V9.4507C31 7.20944 30.097 5.05997 28.4895 3.47515C26.882 1.89034 24.7019 1 22.4286 1H9.57143C7.29814 1 5.11796 1.89034 3.51051 3.47515C1.90305 5.05997 1 7.20944 1 9.4507V22.5493C1 24.7906 1.90305 26.94 3.51051 28.5248C5.11796 30.1097 7.29814 31 9.57143 31Z" stroke="#6E243B" stroke-width="2"/>
<path d="M24.1666 8.2472C24.4133 8.41202 24.7033 8.5 25 8.5C25.3978 8.5 25.7794 8.34196 26.0607 8.06066C26.342 7.77935 26.5 7.39782 26.5 7C26.5 6.70333 26.412 6.41332 26.2472 6.16665C26.0824 5.91997 25.8481 5.72771 25.574 5.61418C25.2999 5.50065 24.9983 5.47095 24.7074 5.52882C24.4164 5.5867 24.1491 5.72956 23.9393 5.93934C23.7295 6.14912 23.5867 6.4164 23.5288 6.70737C23.4709 6.99834 23.5006 7.29994 23.6142 7.57403C23.7277 7.84811 23.92 8.08238 24.1666 8.2472Z" stroke="#6E243B" stroke-width="2"/>
</svg>
