<svg width="19" height="16" viewBox="0 0 19 16" fill="none" xmlns="http://www.w3.org/2000/svg">
<path opacity="0.5" d="M18.1638 0.0394511C18.7021 -0.141032 19 0.330295 19 0.792444L15.9919 15.3479C15.9919 15.8099 15.232 16.1499 14.845 15.933L10.3547 12.6506L7.46957 15.2646L7.78386 10.8599L7.78986 10.7757L7.80382 10.5802L7.80586 10.5783C7.88206 10.5067 10.0775 8.44551 12.2321 6.48119C12.5396 6.20082 12.8472 5.92268 13.1464 5.65219C14.7333 4.21738 16.0823 2.99776 15.9086 2.80047C15.599 2.44868 5.29648 9.4927 5.29648 9.4927L5.24902 9.52791L5.04672 9.49222L0.53401 7.98623C0.147005 7.76951 -0.183715 7.57279 0.116507 6.9824C0.416729 6.39201 18.1638 0.0394511 18.1638 0.0394511Z" fill="black"/>
</svg>
