<svg width="47" height="25" viewBox="0 0 47 25" fill="none" xmlns="http://www.w3.org/2000/svg">
<path d="M41.0313 10.969C41.493 10.4129 41.9457 9.89125 42.3921 9.37701C43.4849 8.11787 44.539 6.90336 45.5903 5.33729C45.9761 4.75755 47.0551 2.49524 46.6424 1.69321L41.0313 10.969ZM41.0313 10.969C40.9065 11.1196 40.7608 11.2781 40.6077 11.4446M41.0313 10.969L40.6077 11.4446M44.759 4.7815C43.7443 6.29286 42.7501 7.43816 41.6748 8.67683C41.2208 9.19981 40.7524 9.73943 40.2619 10.3303L40.2613 10.3309C40.1544 10.4599 40.0323 10.5928 39.8836 10.7546C39.837 10.8053 39.7878 10.8588 39.7356 10.916C39.5302 11.141 39.2949 11.4054 39.0791 11.6955C38.6591 12.2602 38.2142 13.0511 38.2799 14.015C38.3281 14.7999 38.7268 15.4182 39.1276 15.8752C39.4857 16.2837 39.9267 16.6509 40.281 16.946C40.3163 16.9753 40.3507 17.004 40.3841 17.0319C41.8699 18.3122 43.2356 19.7102 44.4665 21.2104L44.4729 21.2182L44.4794 21.2259C44.589 21.354 44.7332 21.5099 44.8749 21.6631C44.9216 21.7136 44.968 21.7638 45.0129 21.8126C45.2069 22.0238 45.4009 22.2407 45.5718 22.4557C45.7462 22.6751 45.8719 22.8621 45.9454 23.0101C45.9716 23.0626 45.9856 23.0991 45.993 23.1213C45.9919 23.1231 45.9908 23.1251 45.9895 23.1272C45.9786 23.1449 45.9519 23.1806 45.8917 23.2296C45.7631 23.3344 45.5359 23.4564 45.1808 23.5705C44.4705 23.7989 43.4897 23.9218 42.4416 23.9719C41.409 24.0213 40.3775 23.9975 39.5973 23.962C39.2087 23.9443 38.8853 23.9238 38.658 23.9083L38.5054 23.8978L38.389 23.8897C38.3582 23.8876 38.3265 23.8855 38.3007 23.8842C38.2902 23.8837 38.2667 23.8826 38.2406 23.8823L38.2401 23.8823C38.2344 23.8823 38.2192 23.8822 38.1984 23.8828H37.9521C35.9791 23.5639 34.7304 22.3087 33.3309 20.8722L33.3309 20.8721L33.324 20.8652C33.1829 20.7231 33.0174 20.5259 32.7957 20.2615C32.764 20.2237 32.7312 20.1846 32.6971 20.144C32.4416 19.84 32.1357 19.4815 31.7996 19.1507C31.1887 18.5493 30.1924 17.7453 28.9596 17.9308C28.1126 18.0572 27.5384 18.5341 27.2086 19.1726C26.9169 19.7373 26.8329 20.3953 26.7928 20.93C26.7738 21.1831 26.7631 21.4422 26.7532 21.6813C26.7522 21.7056 26.7512 21.7297 26.7502 21.7535C26.739 22.0202 26.7279 22.2618 26.7074 22.4878C26.6639 22.9689 26.5876 23.2287 26.5062 23.3589L26.5056 23.3599C26.5052 23.3596 26.4419 23.4413 26.1671 23.5295C25.8829 23.6208 25.4874 23.6812 24.9947 23.706C24.0112 23.7556 22.8473 23.6562 21.8419 23.5564L21.8396 23.5562C15.8458 22.975 12.6205 20.1764 9.88053 16.9476L9.87842 16.9451C6.91278 13.4733 4.76419 9.65115 2.64202 5.54106L2.64103 5.53916C2.46763 5.20507 2.27533 4.87495 2.09593 4.56697C2.0798 4.53929 2.06379 4.51179 2.0479 4.48448C1.85002 4.14446 1.66779 3.82744 1.50849 3.50822C1.29305 3.07648 1.13582 2.67142 1.05703 2.26791C1.32849 2.17641 1.67749 2.10997 2.11732 2.07138C2.69659 2.02055 3.31695 2.02431 3.9868 2.02836C4.17364 2.02949 4.36432 2.03065 4.55903 2.03065C4.86682 2.03065 5.17231 2.02472 5.47935 2.01876C5.96174 2.0094 6.44798 1.99996 6.95308 2.01332C7.74622 2.0343 8.32434 2.11365 8.65364 2.25002C8.6701 2.26678 8.70952 2.30882 8.76992 2.39348C8.88139 2.54972 9.00753 2.7694 9.14775 3.04534C9.28622 3.31781 9.4233 3.61462 9.56383 3.92007L9.57999 3.95519C9.7108 4.23957 9.84733 4.53637 9.97877 4.794C10.9913 6.82336 12.1977 8.76027 13.5826 10.5807L13.5826 10.5807L13.5865 10.5858C13.8883 10.9771 14.3728 11.602 14.9473 12.0996C15.4837 12.5642 16.3459 13.136 17.3657 12.9462C18.0167 12.8267 18.4292 12.392 18.6686 11.9605C18.8971 11.5487 19.0138 11.0681 19.0825 10.6346C19.1937 9.93341 19.2113 9.10716 19.2255 8.44215C19.2287 8.29137 19.2317 8.14888 19.2357 8.01802C19.2408 7.85803 19.2468 7.69049 19.253 7.51756C19.2796 6.7763 19.3097 5.93618 19.2879 5.16856C19.2743 4.69088 19.2403 4.21172 19.1665 3.77515C19.0951 3.35263 18.9749 2.89664 18.7471 2.51088C18.3878 1.89881 17.8829 1.58406 17.4263 1.38783C17.5339 1.35343 17.6503 1.3212 17.7761 1.29129C18.6275 1.08894 19.7299 1.03681 21.0417 1.03681C21.4558 1.03681 21.8625 1.02708 22.261 1.01754C23.0211 0.999342 23.7517 0.981856 24.4482 1.03402C24.959 1.07227 25.3679 1.14536 25.6731 1.25623C25.9679 1.3633 26.1006 1.48121 26.1638 1.57389C26.421 1.98768 26.5401 2.74626 26.5279 3.82575C26.5221 4.33942 26.4888 4.87416 26.4512 5.41053C26.4449 5.49965 26.4385 5.58926 26.4321 5.67898C26.4007 6.11758 26.3691 6.55883 26.3548 6.95794L26.3547 6.96185C26.3445 7.28289 26.3259 7.58596 26.3068 7.89892C26.2958 8.07852 26.2846 8.26138 26.2747 8.45277C26.2489 8.95028 26.234 9.47567 26.2796 9.98193C26.373 11.0211 26.7389 12.1087 27.8809 12.8138L28.168 12.991L28.5038 12.9581C29.4084 12.8695 30.0535 12.4216 30.5321 11.9422C30.7652 11.7088 30.9684 11.4585 31.1435 11.2347C31.2045 11.1566 31.2604 11.084 31.3136 11.015C31.4235 10.8725 31.5216 10.7452 31.6289 10.6159C31.6294 10.6153 31.63 10.6147 31.6305 10.614L30.8611 9.9752M44.759 4.7815L36.4722 1.36193M44.759 4.7815C44.8983 4.57133 45.2301 3.93845 45.4751 3.2592C45.5964 2.92319 45.6813 2.61646 45.717 2.37382C45.7305 2.28208 45.7343 2.21707 45.7348 2.17408C45.7038 2.15981 45.6587 2.14197 45.595 2.12259C45.3567 2.05005 45.0084 2.00318 44.5572 1.9844C44.1154 1.96601 43.6313 1.97613 43.1386 1.99238C43.0302 1.99596 42.9203 1.99989 42.8102 2.00382C42.4362 2.01719 42.0597 2.03065 41.7327 2.03065C41.3643 2.03065 41.0087 2.02668 40.6628 2.02282C40.0509 2.01598 39.4692 2.00949 38.9005 2.02592C38.0279 2.05114 37.3298 2.13022 36.814 2.30202M44.759 4.7815L36.814 2.30202M30.8611 9.9752C32.3849 8.15648 33.5425 6.67897 34.7188 4.34345C34.8439 4.08846 34.9639 3.78406 35.0884 3.468C35.4402 2.57556 35.8287 1.59018 36.4722 1.36193M30.8611 9.9752C30.7414 10.1193 30.6253 10.2699 30.5088 10.421C29.9559 11.1381 29.3946 11.866 28.4063 11.9629L30.8611 9.9752ZM36.4722 1.36193L36.7947 2.30853C36.8011 2.30634 36.8075 2.30418 36.814 2.30202M36.4722 1.36193L36.8065 2.30441C36.8131 2.30206 36.8164 2.30037 36.8164 2.30043C36.8164 2.30046 36.8156 2.30094 36.814 2.30202M40.6077 11.4446C39.9724 12.1356 39.2088 12.9661 39.2778 13.9506L40.6077 11.4446Z" stroke="#6E243B" stroke-width="2"/>
</svg>
