<svg width="24" height="13" xmlns="http://www.w3.org/2000/svg"><path d="M17.016 10.87h0c.715.748 1.354 1.403 2.364 1.57h.126l.02-.001h.031l.046.004.06.004.077.005c.116.008.281.019.48.028.398.019.925.031 1.452.005.536-.026 1.037-.09 1.4-.208.346-.114.413-.221.426-.254a.415.415 0 00-.029-.07 1.765 1.765 0 00-.193-.292 6.296 6.296 0 00-.286-.335l-.07-.078c-.073-.08-.146-.16-.202-.227l-.006-.008h0a17.504 17.504 0 00-2.087-2.175l-.052-.044a5.258 5.258 0 01-.588-.555c-.204-.237-.403-.554-.427-.953-.033-.49.19-.896.403-1.189a5.24 5.24 0 01.41-.488c.076-.084.139-.153.193-.22v-.001c.25-.307.49-.587.721-.859.55-.644 1.058-1.241 1.577-2.028.072-.11.243-.442.368-.797.063-.175.107-.337.125-.465.009-.06.01-.1.01-.124a.519.519 0 00-.082-.031 2.214 2.214 0 00-.53-.072 9.792 9.792 0 00-.725.004l-.168.006a15.72 15.72 0 01-1.096.01c-.313-.004-.61-.007-.9.001-.446.014-.803.055-1.067.144a.305.305 0 00-.067.072 1.67 1.67 0 00-.173.31c-.06.133-.115.276-.175.43l-.007.017a6.854 6.854 0 01-.196.47l-.002.004h0c-.626 1.265-1.245 2.068-2.031 3.024m.87 5.367l-1.257-5.684m1.257 5.684l-.004-.004m.004.004l-.004-.004m-.866-5.363h-.001l-.386-.317m.387.317s0 0 0 0l-.387-.317m.387.317a7.223 7.223 0 00-.162.208l-.087.114a4.063 4.063 0 01-.31.367c-.243.247-.57.48-1.032.525l-.17.017-.146-.091c-.578-.364-.762-.922-.81-1.456a5.755 5.755 0 01-.002-.791l.017-.287c.01-.163.02-.322.024-.489V3.62c.008-.207.024-.436.04-.664l.01-.14c.019-.278.036-.557.039-.825.006-.562-.055-.964-.19-1.186m2.392 4.383c-.061.075-.12.153-.18.232-.282.373-.569.751-1.074.802-.662-.417-.615-1.198-.563-2.07.01-.169.02-.34.026-.514.007-.198.022-.416.038-.644.062-.873.133-1.894-.217-2.457-.372-.576-1.463-.55-2.469-.526-.197.005-.39.01-.575.01-1.067 0-1.993.064-2.53.47.092.044.18.073.288.108a6.55 6.55 0 01.343.122m4.52.084l.003.003.42-.271-.425.264.003.004zm0 0c-.034-.052-.105-.115-.255-.17a2.381 2.381 0 00-.627-.116C12.13.49 11.755.5 11.367.509c-.203.005-.41.01-.622.01-.67 0-1.233.027-1.668.133-.085.02-.162.043-.231.068m0 0c-.258.092-.412.212-.5.353l1.466 3.095s0 0 0 0l.009-.26c.013-.386.029-.821.018-1.22a5.403 5.403 0 00-.062-.72 1.936 1.936 0 00-.211-.649m-.72-.6c.246.1.526.263.72.6M7.879.88l.026-.046L7.88.88zm0 0l.069.037L7.879.88zm1.687.44v-.002l-.433.252.433-.25s0 0 0 0zm7.446 9.547a5.453 5.453 0 01-.27-.315l-.05-.06a7.351 7.351 0 00-.458-.516c-.31-.311-.817-.728-1.446-.632a1.151 1.151 0 00-.886.638c-.147.289-.19.627-.21.904-.01.13-.015.265-.02.39l-.002.037a8.241 8.241 0 01-.022.383c-.022.252-.061.392-.106.465v.001m3.47-1.295l-3.47 1.295m0 0s0 0 0 0c-.003.003-.037.047-.18.093a2.407 2.407 0 01-.599.092c-.502.026-1.097-.026-1.61-.078h-.001m2.39-.107l-2.39.107m0 0c-3.061-.302-4.71-1.758-6.112-3.44v-.001m6.112 3.441L5.039 8.828m0 0C3.523 7.02 2.425 5.03 1.341 2.894v-.001m3.698 5.935L1.341 2.893m0 0a12.008 12.008 0 00-.278-.505l-.024-.043a9.166 9.166 0 01-.277-.509 2.568 2.568 0 01-.236-.672 2.32 2.32 0 01.555-.107c.296-.026.613-.024.955-.022h.292c.157 0 .313-.002.47-.005.246-.005.495-.01.753-.003.406.01.702.052.87.124a.61.61 0 01.063.079 2.8 2.8 0 01.195.341c.071.142.141.297.213.456l.008.018c.067.148.137.302.203.436a18.962 18.962 0 001.839 3.005h0M1.34 2.893l5.6 2.593m0 0l.003.003m-.002-.003l.002.003m0 0c.154.203.4.527.692.785m-.692-.785l.692.785m0 0c.272.24.711.537 1.231.438m-1.23-.438l1.23.438m0 0c.331-.062.539-.286.658-.506a2.12 2.12 0 00.209-.68c.056-.363.065-.79.073-1.136l-.94 2.322z" stroke="#fff"/></svg>