<svg width="22" height="22" fill="none" xmlns="http://www.w3.org/2000/svg"><path d="M6.355 19.289a9.815 9.815 0 004.837 1.266 9.837 9.837 0 005.987-2.034 9.775 9.775 0 003.497-5.252 9.744 9.744 0 00-.445-6.286 9.79 9.79 0 00-4.203-4.71A9.845 9.845 0 004.169 3.94 9.748 9.748 0 002.76 15.79L1 21l5.355-1.711z" stroke="#fff"/><path clip-rule="evenodd" d="M6.008 8.68c-.039-.51.062-1.02.292-1.477.07-.182.167-.353.289-.506.217-.29.921-.818 1.255-.963 0 0 .992-.096 1.078.035.46.788.844 1.616 1.149 2.474.152.561-.646 1.202-.646 1.202s-.505.254 0 .883c.377.47 1.017 1.288 1.402 1.59.406.329.838.624 1.292.884.94.514 1.114.46 1.114.46s.173.07.646-.566c.252-.337.528-.733.79-.813.304-.091 2.761 1.202 2.659 1.202.172.17.036.718.036.718s-.43.769-1.296 1.62c-.616.466-1.634.577-1.634.577a6.3 6.3 0 01-1.868-.424c-.996-.37-2.047-.682-3.412-1.908a13.671 13.671 0 01-2.448-2.9c-.718-1.222-.698-2.088-.698-2.088z" stroke="#fff"/></svg>