<svg width="16" height="16" viewBox="0 0 16 16" fill="none" xmlns="http://www.w3.org/2000/svg">
<g opacity="0.5">
<path d="M15.6545 8.05982C15.8739 8.0132 15.9893 7.90121 15.9893 7.59268C15.9893 7.59268 16.2716 4.51728 13.8776 2.12501C13.8799 2.12306 13.881 2.12112 13.8833 2.11918C11.4836 -0.273099 8.39136 0.0104082 8.39136 0.0104082C8.08168 0.0106367 7.96971 0.126851 7.92286 0.344882C7.92172 0.70358 8.08168 0.842306 8.29994 0.842306C8.29994 0.842306 11.5613 0.93338 13.3142 2.67454C13.3126 2.67607 13.311 2.67776 13.3097 2.67957C15.0626 4.42667 15.1563 7.68272 15.1563 7.68272C15.1563 7.89984 15.2957 8.05982 15.6545 8.05982Z" fill="black"/>
<path d="M9.25433 4.21215C9.25541 4.15643 9.26761 4.10148 9.29018 4.05052C9.31275 3.99956 9.34525 3.95361 9.38578 3.91535C9.42632 3.8771 9.47407 3.84732 9.52625 3.82774C9.57844 3.80817 9.63402 3.79919 9.68971 3.80135C10.0222 3.77723 10.3559 3.82678 10.667 3.94646C10.9781 4.06614 11.2589 4.25301 11.4895 4.49372C11.3703 4.61316 11.289 4.69454 11.2078 4.7756C11.288 4.6957 11.369 4.61513 11.4872 4.4976C11.7284 4.72669 11.9159 5.00642 12.036 5.31664C12.1562 5.62686 12.206 5.95986 12.182 6.29167C12.184 6.34732 12.1749 6.40283 12.1553 6.45493C12.1356 6.50703 12.1057 6.55469 12.0674 6.59512C12.0291 6.63555 11.9832 6.66794 11.9322 6.6904C11.8812 6.71285 11.8263 6.72492 11.7706 6.7259C11.5466 6.74876 11.3501 6.48593 11.3501 6.29875C11.3501 6.29875 11.2758 5.48034 10.8884 5.0941L10.8919 5.09147C10.5045 4.70524 9.68285 4.63187 9.68285 4.63187C9.4943 4.63119 9.23147 4.43544 9.25433 4.21215Z" fill="black"/>
<path d="M13.9169 7.21559C13.9944 7.13812 14.0379 7.03305 14.0379 6.92349C14.0837 6.26006 13.9869 5.5944 13.7539 4.97154C13.5209 4.34868 13.1572 3.78297 12.6872 3.3125L12.6837 3.30965L12.6815 3.30668C12.2084 2.83809 11.6407 2.47589 11.0164 2.24429C10.3921 2.01268 9.72559 1.917 9.06135 1.96364C8.95225 1.96349 8.84755 2.00668 8.77029 2.08373C8.69304 2.16077 8.64956 2.26534 8.64941 2.37445C8.64925 2.48355 8.69244 2.58825 8.76948 2.6655C8.84652 2.74276 8.95111 2.78624 9.06021 2.7864C9.06021 2.7864 11.1354 2.91758 12.109 3.88889C13.078 4.86317 13.2117 6.92349 13.2117 6.92349C13.2117 7.03305 13.2552 7.13812 13.3327 7.21559C13.4101 7.29306 13.5152 7.33658 13.6248 7.33658C13.7343 7.33658 13.8394 7.29306 13.9169 7.21559Z" fill="black"/>
<path d="M11.0772 10.1027C10.8349 10.2162 10.3904 10.8498 10.3127 10.9579C10.1902 11.117 10.033 11.2459 9.85291 11.3349C9.67286 11.4239 9.4748 11.4704 9.27396 11.4709C7.89356 11.3855 6.24576 9.77791 6.24576 9.77791L6.24462 9.77917C6.24462 9.77917 4.63111 8.13572 4.54541 6.75886C4.52941 6.22098 4.8768 5.87531 5.05963 5.72298C5.16705 5.64562 5.80354 5.20316 5.91667 4.96056C6.00876 4.79942 6.06077 4.61851 6.06833 4.43307C6.07588 4.24762 6.03875 4.06308 5.96008 3.89498C5.74411 3.30659 4.87679 2.07246 4.82079 2.02675C4.7968 1.99487 3.57868 0.347756 3.03817 0.347756C2.88733 0.273365 2.26796 0.258853 1.56519 0.667717C1.22547 0.826864 0.921716 1.0535 0.672413 1.33383C0.423109 1.61415 0.233486 1.94229 0.115087 2.29826C0.0842334 2.34454 -0.124889 2.93144 0.110511 3.93886C0.340104 4.57397 0.60564 5.19551 0.905839 5.80046C2.39594 8.95904 4.75909 11.255 4.76709 11.2512L4.77853 11.2398C4.76709 11.2512 4.76709 11.2512 4.76938 11.2491C4.76481 11.2573 7.06739 13.6119 10.235 15.0968C10.8418 15.3964 11.4652 15.6611 12.1022 15.8895C13.1124 16.1245 13.7009 15.9163 13.7477 15.8853C14.1041 15.768 14.4329 15.5794 14.714 15.331C14.9951 15.0826 15.2227 14.7795 15.383 14.4403C15.7932 13.7398 15.7783 13.1219 15.704 12.9724C15.704 12.438 14.0813 11.2406 14.0209 11.196L14.0197 11.1951C13.974 11.1392 12.7364 10.2747 12.1468 10.0597C11.9779 9.98156 11.7928 9.9447 11.6068 9.95217C11.4208 9.95964 11.2393 10.0112 11.0772 10.1027Z" fill="black"/>
</g>
</svg>
