<svg width="33" height="33" viewBox="0 0 33 33" fill="none" xmlns="http://www.w3.org/2000/svg">
<path d="M10.032 28.4334C12.2447 29.6819 14.7449 30.3363 17.2878 30.3327C20.5372 30.3308 23.6948 29.2578 26.2681 27.2809C28.8414 25.304 30.6859 22.5344 31.514 19.4039C32.3421 16.2734 32.1072 12.9578 30.846 9.9742C29.5849 6.99055 27.3683 4.50648 24.5418 2.90925C21.7154 1.31202 18.4379 0.691401 15.2203 1.14415C12.0028 1.59689 9.02599 3.09756 6.75407 5.41219C4.48216 7.72682 3.04281 10.7253 2.66038 13.9403C2.27794 17.1552 2.97392 20.4058 4.63984 23.1854L2 31L10.032 28.4334Z" stroke="#6E243B" stroke-width="2"/>
<path fill-rule="evenodd" clip-rule="evenodd" d="M9.51193 12.5202C9.4539 11.7564 9.60521 10.9912 9.95009 10.305C10.0552 10.0316 10.2012 9.77537 10.3833 9.54478C10.7085 9.1107 11.7656 8.31821 12.2662 8.10089C12.2662 8.10089 13.7542 7.95671 13.8829 8.15416C14.5725 9.33566 15.1493 10.5778 15.6061 11.8646C15.8338 12.7062 14.638 13.6669 14.638 13.6669C14.638 13.6669 13.8805 14.0481 14.638 14.9921C15.2025 15.6966 16.1631 16.9243 16.74 17.3776C17.3493 17.8698 17.9976 18.3131 18.6785 18.7033C20.0872 19.4743 20.3497 19.3922 20.3497 19.3922C20.3497 19.3922 20.6096 19.497 21.3177 18.5442C21.6965 18.0384 22.1099 17.4445 22.5036 17.3248C22.9591 17.1872 26.6458 19.127 26.492 19.127C26.7495 19.3834 26.5465 20.2052 26.5465 20.2052C26.5465 20.2052 25.9008 21.3576 24.6018 22.6343C23.6783 23.3335 22.1507 23.4999 22.1507 23.4999C21.1889 23.432 20.2436 23.2177 19.3482 22.8645C17.8553 22.3091 16.2782 21.8416 14.2307 20.0023C12.8084 18.7275 11.5727 17.2635 10.5592 15.6525C9.48222 13.8195 9.51193 12.5202 9.51193 12.5202Z" stroke="#6E243B" stroke-width="2"/>
</svg>
