<svg width="16" height="16" fill="none" xmlns="http://www.w3.org/2000/svg"><g opacity=".5" fill="#000"><path d="M15.655 8.06c.219-.047.334-.159.334-.467 0 0 .283-3.076-2.111-5.468l.005-.006C11.483-.273 8.391.01 8.391.01c-.31 0-.421.117-.468.335-.001.359.159.497.377.497 0 0 3.261.091 5.014 1.833a.037.037 0 00-.004.005c1.753 1.747 1.846 5.003 1.846 5.003 0 .217.14.377.498.377zM9.254 4.212a.42.42 0 01.436-.41 2.265 2.265 0 011.8.692 208.351 208.351 0 01-.003.004 2.25 2.25 0 01.695 1.794.42.42 0 01-.411.434c-.224.023-.42-.24-.42-.427 0 0-.075-.819-.463-1.205l.004-.003c-.387-.386-1.21-.46-1.21-.46-.188 0-.45-.196-.428-.419z"/><path d="M13.917 7.216a.413.413 0 00.12-.293 4.656 4.656 0 00-1.35-3.61l-.003-.003-.002-.003a4.679 4.679 0 00-3.62-1.343.411.411 0 10-.002.822s2.075.132 3.049 1.103c.969.974 1.103 3.034 1.103 3.034a.413.413 0 00.705.293zm-2.84 2.887c-.242.113-.687.747-.764.855a1.316 1.316 0 01-1.039.513c-1.38-.085-3.028-1.693-3.028-1.693l-.001.001s-1.614-1.643-1.7-3.02c-.016-.538.332-.884.515-1.036.107-.077.744-.52.857-.762a1.158 1.158 0 00.043-1.066c-.216-.588-1.083-1.823-1.14-1.868-.022-.032-1.24-1.68-1.781-1.68-.15-.074-.77-.088-1.473.32a2.764 2.764 0 00-1.45 1.631c-.03.047-.24.633-.004 1.64.23.636.495 1.258.795 1.862 1.49 3.159 3.853 5.455 3.861 5.451l.012-.011-.01.01c-.004.007 2.298 2.362 5.466 3.847.607.3 1.23.564 1.867.793 1.01.235 1.599.026 1.646-.005a2.764 2.764 0 001.635-1.445c.41-.7.395-1.318.321-1.468 0-.534-1.623-1.731-1.683-1.776h-.001c-.046-.057-1.284-.921-1.873-1.136a1.174 1.174 0 00-1.07.043z"/></g></svg>