<svg width="47" height="25" fill="none" xmlns="http://www.w3.org/2000/svg"><path d="M41.031 10.969c.462-.556.915-1.078 1.361-1.592 1.093-1.26 2.147-2.474 3.198-4.04.386-.58 1.465-2.842 1.052-3.644l-5.61 9.276zm0 0c-.124.15-.27.31-.423.476m.423-.476l-.423.476m4.151-6.663c-1.015 1.51-2.009 2.656-3.084 3.895a96.347 96.347 0 00-1.413 1.653h0a11.4 11.4 0 01-.378.425l-.148.161c-.206.225-.441.49-.657.78-.42.564-.865 1.355-.8 2.319.05.785.448 1.403.849 1.86.358.409.799.776 1.153 1.071l.103.086a33.918 33.918 0 014.083 4.178l.006.008.006.008c.11.128.254.284.396.437l.138.15c.194.21.388.428.559.643.174.22.3.406.373.554.027.053.04.09.048.111l-.004.006a.436.436 0 01-.097.103c-.129.104-.356.226-.711.34-.71.229-1.691.352-2.74.402a31.27 31.27 0 01-2.844-.01 41.397 41.397 0 01-.939-.054l-.153-.01-.116-.008a5.34 5.34 0 00-.148-.008h0-.289c-1.973-.318-3.222-1.573-4.621-3.01h0l-.007-.007c-.141-.142-.307-.34-.528-.603l-.099-.118a14.262 14.262 0 00-.897-.993c-.611-.602-1.608-1.406-2.84-1.22-.847.126-1.422.603-1.751 1.242-.292.564-.376 1.222-.416 1.757-.02.253-.03.512-.04.751 0 .025-.002.049-.003.072-.011.267-.022.509-.043.735-.043.48-.12.74-.2.87l-.001.002s-.064.081-.339.17c-.284.09-.68.151-1.172.176-.984.05-2.148-.05-3.153-.15h-.002c-5.994-.581-9.22-3.38-11.96-6.608l-.002-.003C6.913 13.473 4.764 9.651 2.642 5.541l-.001-.002c-.173-.334-.366-.664-.545-.972l-.048-.083a17.96 17.96 0 01-.54-.976c-.215-.432-.372-.837-.451-1.24.271-.092.62-.158 1.06-.197.58-.05 1.2-.047 1.87-.043.187.001.377.003.572.003.308 0 .613-.006.92-.012.483-.01.969-.019 1.474-.006.793.021 1.371.1 1.7.237.017.017.057.059.117.143.111.157.238.376.378.652.138.273.275.57.416.875l.016.035c.13.285.267.581.399.839a36.399 36.399 0 003.604 5.787h0l.003.005c.302.391.787 1.016 1.361 1.514.537.464 1.399 1.036 2.419.846.65-.12 1.063-.554 1.303-.986.228-.411.345-.892.413-1.325.112-.702.13-1.528.143-2.193l.01-.424.018-.5c.027-.742.057-1.582.035-2.35a10.271 10.271 0 00-.122-1.393c-.07-.422-.191-.878-.419-1.264-.36-.612-.864-.927-1.32-1.123.107-.035.223-.067.35-.097.85-.202 1.953-.254 3.265-.254.414 0 .82-.01 1.219-.02.76-.018 1.49-.035 2.187.017.511.038.92.111 1.225.222.295.107.428.225.49.318.258.414.377 1.172.365 2.252a28.17 28.17 0 01-.077 1.585l-.019.268c-.031.439-.063.88-.077 1.279v.004c-.01.32-.03.624-.048.937-.011.18-.022.362-.032.554-.026.497-.041 1.023.005 1.529.093 1.04.459 2.127 1.6 2.832l.288.177.336-.033c.904-.088 1.55-.536 2.028-1.016.233-.233.436-.483.611-.707l.17-.22c.11-.143.209-.27.316-.4l.002-.001-.77-.639M44.76 4.782l-8.287-3.42m8.287 3.42c.14-.21.471-.844.716-1.523.121-.336.206-.643.242-.885.014-.092.017-.157.018-.2a1.108 1.108 0 00-.14-.051c-.238-.073-.587-.12-1.038-.139a19.52 19.52 0 00-1.418.008l-.329.012c-.374.013-.75.027-1.077.027-.369 0-.724-.004-1.07-.008a44.333 44.333 0 00-1.762.003c-.873.025-1.571.104-2.087.276m7.945 2.48l-7.945-2.48m-5.953 7.673c1.524-1.819 2.681-3.296 3.858-5.632.125-.255.245-.559.37-.875.351-.892.74-1.878 1.383-2.106m-5.61 8.613c-.12.144-.237.295-.353.446-.553.717-1.114 1.445-2.103 1.542l2.455-1.988zm5.61-8.613l.323.947a2.29 2.29 0 01.019-.007m-.342-.94l.334.942.01-.004-.002.002m3.794 9.143c-.636.69-1.4 1.521-1.33 2.506l1.33-2.506z" stroke="#6E243B" stroke-width="2"/></svg>
