<svg width="18" height="18" fill="none" xmlns="http://www.w3.org/2000/svg"><path opacity=".5" fill-rule="evenodd" clip-rule="evenodd" d="M4.88 6.986c-.03-.412.05-.825.234-1.195.056-.147.135-.285.232-.41.174-.234.406-.419.673-.536 0 0 .796-.078.864.029.369.637.677 1.307.921 2.001.122.454-.517.973-.517.973s-.405.205 0 .715c.302.38.815 1.042 1.123 1.286a7.93 7.93 0 001.037.716c.753.416.893.371.893.371s.139.057.517-.457c.203-.273.424-.593.634-.658.243-.074 2.21 1.05 2.132.972.137.139.029.582.029.582s.042.496-.707 1.068c-.493.377-1.31.467-1.31.467a5.016 5.016 0 01-1.498-.343c-.798-.3-1.64-.552-2.735-1.544A11.039 11.039 0 015.44 8.676c-.576-.989-.56-1.69-.56-1.69zM9.173 17.6a8.834 8.834 0 01-4.354-1.14L0 18l1.584-4.689A8.773 8.773 0 012.852 2.647a8.86 8.86 0 0110.673-1.502 8.811 8.811 0 013.783 4.24 8.77 8.77 0 01.4 5.657 8.799 8.799 0 01-3.147 4.727 8.854 8.854 0 01-5.388 1.83zM9.158 1.499A7.394 7.394 0 005.311 2.56a7.357 7.357 0 00-2.727 2.904 7.323 7.323 0 00.539 7.639l-.703 2.122.003.002-.205.599 1.192-.353a.03.03 0 00-.007-.006l1.636-.513a7.403 7.403 0 009.472-1.01 7.334 7.334 0 00.594-9.472 7.38 7.38 0 00-2.618-2.193A7.41 7.41 0 009.158 1.5z" fill="#000"/></svg>