<svg width="33" height="33" fill="none" xmlns="http://www.w3.org/2000/svg"><path d="M10.032 28.433a14.724 14.724 0 007.256 1.9 14.756 14.756 0 008.98-3.052 14.664 14.664 0 005.246-7.877c.828-3.13.593-6.446-.668-9.43a14.684 14.684 0 00-6.304-7.065A14.767 14.767 0 006.754 5.412 14.622 14.622 0 004.64 23.185L2 31l8.032-2.567z" stroke="#6E243B" stroke-width="2"/><path clip-rule="evenodd" d="M9.512 12.52a4.22 4.22 0 01.438-2.215c.105-.273.251-.53.433-.76.326-.434 1.383-1.227 1.883-1.444 0 0 1.488-.144 1.617.053a21.884 21.884 0 011.723 3.71c.228.842-.968 1.803-.968 1.803s-.758.381 0 1.325c.565.705 1.525 1.932 2.102 2.386.61.492 1.258.935 1.939 1.325 1.408.771 1.67.69 1.67.69s.26.104.969-.849c.378-.506.792-1.1 1.186-1.22.455-.137 4.142 1.803 3.988 1.803.258.256.055 1.078.055 1.078s-.646 1.153-1.945 2.43c-.924.698-2.451.865-2.451.865a9.452 9.452 0 01-2.803-.636c-1.493-.555-3.07-1.022-5.117-2.862a20.506 20.506 0 01-3.672-4.35C9.482 13.82 9.512 12.52 9.512 12.52z" stroke="#6E243B" stroke-width="2"/></svg>