<svg width="22" height="22" viewBox="0 0 22 22" fill="none" xmlns="http://www.w3.org/2000/svg">
<path d="M6.71429 21H15.2857C16.8012 21 18.2547 20.4064 19.3263 19.3499C20.398 18.2934 21 16.8604 21 15.3662V6.6338C21 5.13963 20.398 3.70665 19.3263 2.6501C18.2547 1.59356 16.8012 1 15.2857 1H6.71429C5.19876 1 3.74531 1.59356 2.67367 2.6501C1.60203 3.70665 1 5.13963 1 6.6338V15.3662C1 16.8604 1.60203 18.2934 2.67367 19.3499C3.74531 20.4064 5.19876 21 6.71429 21Z" stroke="white"/>
<path d="M16.4444 5.83147C16.6089 5.94135 16.8022 6 17 6C17.2652 6 17.5196 5.89464 17.7071 5.70711C17.8947 5.51957 18 5.26522 18 5C18 4.80222 17.9414 4.60888 17.8315 4.44443C17.7216 4.27998 17.5654 4.15181 17.3827 4.07612C17.2 4.00043 16.9989 3.98063 16.8049 4.01922C16.6109 4.0578 16.4327 4.15304 16.2929 4.29289C16.153 4.43275 16.0578 4.61093 16.0192 4.80491C15.9806 4.99889 16.0004 5.19996 16.0761 5.38268C16.1518 5.56541 16.28 5.72159 16.4444 5.83147Z" stroke="white"/>
</svg>
