<svg width="24" height="13" viewBox="0 0 24 13" fill="none" xmlns="http://www.w3.org/2000/svg">
<path d="M17.0156 10.8707L17.0155 10.8707C17.7309 11.6185 18.3704 12.273 19.3797 12.4391H19.5056C19.5162 12.4387 19.5239 12.4388 19.5268 12.4388L19.5271 12.4388C19.5404 12.4389 19.5524 12.4395 19.5577 12.4398C19.5709 12.4405 19.5871 12.4416 19.6028 12.4426L19.6622 12.4468L19.7402 12.4523C19.8562 12.4604 20.0214 12.471 20.2198 12.4802C20.6182 12.4987 21.145 12.5111 21.6724 12.4854C22.2076 12.4593 22.7086 12.3955 23.0718 12.2765C23.4176 12.1633 23.485 12.0555 23.4977 12.0232C23.4946 12.0118 23.487 11.9891 23.4694 11.9531C23.4308 11.8741 23.3657 11.7755 23.2763 11.6611C23.1886 11.5487 23.0892 11.4356 22.9901 11.3257C22.9671 11.3001 22.9433 11.274 22.9194 11.2477C22.8471 11.1681 22.7738 11.0874 22.7181 11.021L22.7116 11.0134L22.7117 11.0133C22.0825 10.2323 21.3844 9.50467 20.6251 8.83841C20.6081 8.82388 20.5905 8.80897 20.5725 8.7937C20.3914 8.64011 20.1671 8.44991 19.9851 8.23853C19.7812 8.00175 19.5819 7.68527 19.5578 7.28614C19.5248 6.79512 19.7473 6.39006 19.9613 6.0971C20.0709 5.94705 20.1905 5.8101 20.2954 5.69313C20.3219 5.66356 20.3469 5.63581 20.3707 5.6095C20.4467 5.52526 20.5095 5.45572 20.5643 5.38829L20.5646 5.38796C20.8145 5.08139 21.0534 4.80113 21.2851 4.52934C21.8345 3.88484 22.3433 3.28801 22.8621 2.50107C22.9344 2.39016 23.1046 2.05916 23.2304 1.70428C23.2926 1.52873 23.3366 1.36733 23.3552 1.23858C23.3639 1.17812 23.365 1.13854 23.3645 1.11541C23.3484 1.10719 23.3226 1.09608 23.2832 1.08386C23.1612 1.04602 22.9831 1.02165 22.7527 1.01189C22.527 1.00233 22.2798 1.00759 22.0282 1.01604C21.9728 1.0179 21.9167 1.01994 21.8604 1.02199C21.6695 1.02894 21.4773 1.03594 21.3103 1.03594C21.1222 1.03594 20.9407 1.03387 20.7641 1.03187C20.4515 1.02831 20.1545 1.02493 19.8641 1.03348C19.4181 1.04661 19.0611 1.08777 18.7971 1.17745C18.7923 1.18062 18.7687 1.19695 18.7295 1.24868C18.6764 1.31893 18.6191 1.42173 18.5566 1.55977C18.4969 1.69174 18.4415 1.83481 18.3819 1.98873L18.3754 2.00562C18.3162 2.15846 18.2504 2.32777 18.1792 2.47562L18.1769 2.48026L18.1769 2.48025C17.5514 3.74509 16.9323 4.5478 16.1458 5.50374M17.0156 10.8707L15.7589 5.18711M17.0156 10.8707L17.0122 10.8672M17.0156 10.8707L17.0122 10.8672M16.1458 5.50374C16.1456 5.50408 16.1453 5.50443 16.145 5.50478L15.7589 5.18711M16.1458 5.50374C16.146 5.50352 16.1462 5.5033 16.1464 5.50308L15.7589 5.18711M16.1458 5.50374C16.0907 5.57136 16.0402 5.63805 15.9839 5.71247C15.9568 5.74828 15.9283 5.78587 15.8974 5.82622C15.8081 5.94246 15.7049 6.07193 15.5865 6.1926C15.3441 6.43987 15.0163 6.67218 14.555 6.71823L14.3844 6.73526L14.2392 6.64399C13.6608 6.28032 13.477 5.72179 13.4299 5.18801C13.4068 4.92688 13.4143 4.65536 13.4275 4.39694C13.4325 4.29799 13.4382 4.20314 13.4438 4.10982C13.4536 3.94675 13.4631 3.78838 13.4683 3.62109L13.4684 3.61917C13.4757 3.41223 13.4917 3.18345 13.5078 2.95541C13.5111 2.90868 13.5143 2.86198 13.5175 2.8155C13.5368 2.53654 13.5538 2.25774 13.5568 1.98972C13.563 1.42753 13.5024 1.02571 13.3669 0.804035M15.7589 5.18711C15.6978 5.26205 15.6385 5.34036 15.579 5.41893C15.2966 5.79182 15.01 6.17033 14.5053 6.2207C13.8433 5.80447 13.8901 5.02308 13.9423 4.15062C13.9524 3.98206 13.9627 3.8101 13.9681 3.63672C13.975 3.43939 13.9903 3.22137 14.0063 2.99338C14.0677 2.11968 14.1394 1.09947 13.789 0.535937C13.4171 -0.040221 12.326 -0.014187 11.3201 0.00981275C11.123 0.0145157 10.9292 0.0191406 10.7447 0.0191406C9.67802 0.0191406 8.75186 0.0843368 8.21452 0.490858C8.30742 0.534377 8.39546 0.563088 8.50254 0.598007C8.57761 0.622487 8.66203 0.650018 8.76404 0.68784C8.79073 0.697736 8.81803 0.708259 8.84575 0.719569M13.3669 0.804035C13.3676 0.805067 13.3683 0.806094 13.3689 0.807118L13.789 0.535945L13.3644 0.799932C13.3652 0.801293 13.3661 0.80266 13.3669 0.804035ZM13.3669 0.804035C13.3319 0.751533 13.2614 0.689221 13.1105 0.633432C12.9542 0.5756 12.7451 0.537585 12.4843 0.517693C12.1285 0.490564 11.7554 0.499659 11.3672 0.509122C11.1637 0.514081 10.9561 0.519141 10.7447 0.519141C10.0749 0.519141 9.51174 0.546241 9.07672 0.651533C8.9917 0.672112 8.91498 0.694833 8.84575 0.719569M8.84575 0.719569C8.58792 0.811701 8.4343 0.931798 8.34511 1.07336L9.81184 4.16819C9.81184 4.16842 9.81183 4.16865 9.81182 4.16888C9.81444 4.08531 9.81752 3.99785 9.8207 3.90765C9.83427 3.52223 9.84961 3.0866 9.8385 2.68847C9.8316 2.44078 9.81429 2.19308 9.7769 1.96787C9.74069 1.74976 9.68006 1.5162 9.56582 1.31922M8.84575 0.719569C9.09166 0.81988 9.37152 0.982154 9.56582 1.31922M7.87944 0.880468C7.88775 0.864781 7.89638 0.849374 7.9053 0.834243L7.87944 0.880468ZM7.87944 0.880468C7.90219 0.893203 7.925 0.905261 7.94782 0.916725L7.87944 0.880468ZM9.56582 1.31922C9.56564 1.31891 9.56546 1.3186 9.56528 1.31829L9.13299 1.56952L9.56636 1.32016C9.56618 1.31985 9.566 1.31953 9.56582 1.31922ZM17.0122 10.8672C16.9396 10.7928 16.8546 10.6897 16.7415 10.5523C16.7253 10.5326 16.7085 10.5123 16.6911 10.4912C16.5607 10.3331 16.4049 10.1473 16.2339 9.97583C15.9237 9.66493 15.4166 9.24756 14.7879 9.34402C14.3558 9.40979 14.0666 9.65685 13.9015 9.98219C13.755 10.271 13.7124 10.6085 13.692 10.8858C13.6823 11.0168 13.6769 11.1511 13.6718 11.2754C13.6713 11.2881 13.6708 11.3006 13.6703 11.3131C13.6646 11.4517 13.6589 11.578 13.6484 11.6963C13.626 11.9475 13.5866 12.0879 13.542 12.1607L13.5411 12.1621M17.0122 10.8672L13.5411 12.1621M13.5411 12.1621C13.5412 12.1619 13.5412 12.1619 13.5411 12.1621C13.5389 12.1649 13.5049 12.2087 13.3627 12.2552C13.2171 12.3028 13.0149 12.3342 12.7633 12.3471C12.261 12.3729 11.6665 12.3212 11.1531 12.2693L11.152 12.2692M13.5411 12.1621L11.152 12.2692M11.152 12.2692C8.09052 11.9669 6.44154 10.5108 5.04014 8.82912L5.0391 8.82788M11.152 12.2692L5.0391 8.82788M5.0391 8.82788C3.52327 7.0208 2.42523 5.03149 1.34134 2.89381L1.34086 2.89286M5.0391 8.82788L1.34086 2.89286M1.34086 2.89286C1.25258 2.71966 1.15466 2.54847 1.063 2.38823C1.05478 2.37386 1.04661 2.35958 1.0385 2.3454C0.937479 2.16862 0.844088 2.00319 0.762376 1.83644C0.648316 1.60368 0.565281 1.38424 0.525792 1.16408C0.666958 1.11386 0.849626 1.0778 1.08105 1.05712C1.37693 1.03069 1.6938 1.03264 2.03587 1.03475C2.13126 1.03534 2.22861 1.03594 2.32801 1.03594C2.48512 1.03594 2.64109 1.03285 2.79788 1.02976C3.04424 1.02489 3.29261 1.01998 3.55055 1.02693C3.95657 1.03786 4.25282 1.07928 4.42158 1.15097C4.42966 1.15922 4.45104 1.18182 4.48445 1.2295C4.54223 1.31198 4.60721 1.42733 4.67904 1.57126C4.74998 1.71342 4.82016 1.86818 4.8919 2.02696L4.90007 2.04504C4.96695 2.19311 5.03651 2.34708 5.10342 2.48062C5.6198 3.53458 6.23513 4.54066 6.94164 5.48636L6.94163 5.48636M1.34086 2.89286L6.94163 5.48636M6.94163 5.48636L6.94357 5.48892M6.94163 5.48636L6.94357 5.48892M6.94357 5.48892C7.09764 5.69241 7.34416 6.01607 7.63623 6.2737M6.94357 5.48892L7.63623 6.2737M7.63623 6.2737C7.90823 6.51364 8.34713 6.81058 8.86721 6.71209M7.63623 6.2737L8.86721 6.71209M8.86721 6.71209C9.19845 6.65018 9.4059 6.42582 9.52547 6.2064C9.64017 5.9959 9.6991 5.74947 9.73398 5.52547C9.79042 5.16302 9.79937 4.73601 9.80662 4.39017L8.86721 6.71209Z" stroke="white"/>
</svg>
