<svg width="22" height="22" viewBox="0 0 22 22" fill="none" xmlns="http://www.w3.org/2000/svg">
<path d="M6.35467 19.289C7.82978 20.1213 9.4966 20.5576 11.1918 20.5551C13.3582 20.5539 15.4632 19.8385 17.1787 18.5206C18.8943 17.2027 20.1239 15.3563 20.676 13.2693C21.228 11.1823 21.0715 8.9719 20.2307 6.9828C19.3899 4.9937 17.9122 3.33765 16.0279 2.27283C14.1436 1.20801 11.9586 0.794267 9.81355 1.0961C7.66852 1.39793 5.68399 2.39837 4.16938 3.94146C2.65477 5.48455 1.69521 7.48356 1.44025 9.62684C1.18529 11.7701 1.64928 13.9372 2.7599 15.7903L1 21L6.35467 19.289Z" stroke="white"/>
<path fill-rule="evenodd" clip-rule="evenodd" d="M6.00796 8.68014C5.96927 8.17091 6.07014 7.6608 6.30006 7.20334C6.37011 7.02109 6.46747 6.85024 6.5889 6.69652C6.80565 6.40713 7.5104 5.87881 7.84416 5.73393C7.84416 5.73393 8.83612 5.63781 8.92195 5.76944C9.38164 6.55711 9.76621 7.38522 10.0707 8.2431C10.2226 8.80417 9.42537 9.44457 9.42537 9.44457C9.42537 9.44457 8.92031 9.69872 9.42537 10.328C9.80168 10.7977 10.4421 11.6162 10.8267 11.9184C11.2329 12.2465 11.6651 12.5421 12.119 12.8022C13.0582 13.3162 13.2331 13.2614 13.2331 13.2614C13.2331 13.2614 13.4064 13.3313 13.8785 12.6961C14.131 12.3589 14.4066 11.963 14.6691 11.8832C14.9728 11.7915 17.4305 13.0847 17.328 13.0847C17.4997 13.2556 17.3643 13.8034 17.3643 13.8034C17.3643 13.8034 16.9339 14.5718 16.0679 15.4229C15.4522 15.889 14.4338 15.9999 14.4338 15.9999C13.7926 15.9547 13.1624 15.8118 12.5655 15.5764C11.5702 15.2061 10.5188 14.8944 9.15381 13.6682C8.20558 12.8183 7.3818 11.8423 6.70612 10.7683C5.98815 9.54634 6.00796 8.68014 6.00796 8.68014Z" stroke="white"/>
</svg>
